<svg width="32" height="32" viewBox="0 0 32 32" fill="none" xmlns="http://www.w3.org/2000/svg">
<rect x="0.5" y="0.5" width="31" height="31" rx="3.5" fill="#3C99DC" stroke="black"/>
<path d="M10.1021 23.189C8.64612 23.189 7.40012 22.881 6.36412 22.265C5.32812 21.649 4.53012 20.774 3.97012 19.64C3.42412 18.506 3.15112 17.155 3.15112 15.587C3.15112 14.411 3.30512 13.361 3.61312 12.437C3.93512 11.499 4.39012 10.708 4.97812 10.064C5.58012 9.406 6.31512 8.902 7.18312 8.552C8.05112 8.188 9.02412 8.006 10.1021 8.006C10.9701 8.006 11.7961 8.132 12.5801 8.384C13.3641 8.622 14.0431 8.979 14.6171 9.455C14.7991 9.595 14.9181 9.756 14.9741 9.938C15.0441 10.106 15.0511 10.274 14.9951 10.442C14.9531 10.596 14.8691 10.729 14.7431 10.841C14.6311 10.939 14.4911 10.988 14.3231 10.988C14.1551 10.988 13.9661 10.918 13.7561 10.778C13.2521 10.372 12.6991 10.071 12.0971 9.875C11.4951 9.679 10.8441 9.581 10.1441 9.581C9.03812 9.581 8.10012 9.819 7.33012 10.295C6.56012 10.757 5.97912 11.436 5.58712 12.332C5.19512 13.228 4.99912 14.313 4.99912 15.587C4.99912 16.861 5.19512 17.953 5.58712 18.863C5.97912 19.759 6.56012 20.445 7.33012 20.921C8.10012 21.383 9.03812 21.614 10.1441 21.614C10.8301 21.614 11.4811 21.516 12.0971 21.32C12.7131 21.11 13.2801 20.802 13.7981 20.396C14.0081 20.256 14.1971 20.193 14.3651 20.207C14.5331 20.207 14.6731 20.256 14.7851 20.354C14.8971 20.452 14.9741 20.578 15.0161 20.732C15.0721 20.886 15.0721 21.047 15.0161 21.215C14.9741 21.383 14.8691 21.53 14.7011 21.656C14.1131 22.16 13.4201 22.545 12.6221 22.811C11.8381 23.063 10.9981 23.189 10.1021 23.189Z" fill="#20202C"/>
<path d="M24.232 23.189C22.776 23.189 21.53 22.881 20.494 22.265C19.458 21.649 18.66 20.774 18.1 19.64C17.554 18.506 17.281 17.155 17.281 15.587C17.281 14.411 17.435 13.361 17.743 12.437C18.065 11.499 18.52 10.708 19.108 10.064C19.71 9.406 20.445 8.902 21.313 8.552C22.181 8.188 23.154 8.006 24.232 8.006C25.1 8.006 25.926 8.132 26.71 8.384C27.494 8.622 28.173 8.979 28.747 9.455C28.929 9.595 29.048 9.756 29.104 9.938C29.174 10.106 29.181 10.274 29.125 10.442C29.083 10.596 28.999 10.729 28.873 10.841C28.761 10.939 28.621 10.988 28.453 10.988C28.285 10.988 28.096 10.918 27.886 10.778C27.382 10.372 26.829 10.071 26.227 9.875C25.625 9.679 24.974 9.581 24.274 9.581C23.168 9.581 22.23 9.819 21.46 10.295C20.69 10.757 20.109 11.436 19.717 12.332C19.325 13.228 19.129 14.313 19.129 15.587C19.129 16.861 19.325 17.953 19.717 18.863C20.109 19.759 20.69 20.445 21.46 20.921C22.23 21.383 23.168 21.614 24.274 21.614C24.96 21.614 25.611 21.516 26.227 21.32C26.843 21.11 27.41 20.802 27.928 20.396C28.138 20.256 28.327 20.193 28.495 20.207C28.663 20.207 28.803 20.256 28.915 20.354C29.027 20.452 29.104 20.578 29.146 20.732C29.202 20.886 29.202 21.047 29.146 21.215C29.104 21.383 28.999 21.53 28.831 21.656C28.243 22.16 27.55 22.545 26.752 22.811C25.968 23.063 25.128 23.189 24.232 23.189Z" fill="#EEEEEE"/>
</svg>
